Coordinates
version=1
nRows=30
nColumns=34
inDegrees=no

Units are S.I. units (second, meters, Newtons, ...)
If the header above contains a line with 'inDegrees', this indicates whether rotational values are in degrees (yes) or radians (no).

endheader
time	pelvis_tilt	pelvis_list	pelvis_rotation	pelvis_tx	pelvis_ty	pelvis_tz	hip_flexion_r	hip_adduction_r	hip_rotation_r	knee_angle_r	ankle_angle_r	subtalar_angle_r	mtp_angle_r	hip_flexion_l	hip_adduction_l	hip_rotation_l	knee_angle_l	ankle_angle_l	subtalar_angle_l	mtp_angle_l	lumbar_extension	lumbar_bending	lumbar_rotation	arm_flex_r	arm_add_r	arm_rot_r	elbow_flex_r	pro_sup_r	arm_flex_l	arm_add_l	arm_rot_l	elbow_flex_l	pro_sup_l
0	0.322811	-0.060811	-0.107596	-0.154311	0.941577	-0.570988	-0.443457	-0.0845063	-0.0157172	-0.025746	0.27151	0.223938	-0.0230729	-0.472067	-0.140894	-0.339393	0.0030201	0.317607	0.349554	-0.023073	-0.455089	0.0457576	0.0367519	0.26428	-0.249723	0.00881447	1.18819	1.75415	0.19944	-0.269391	-0.0620199	1.21942	1.55208
0.01	0.32293	-0.0598687	-0.106989	-0.1541	0.94168	-0.571019	-0.443833	-0.085183	-0.014219	-0.0255281	0.270726	0.220964	-0.0230729	-0.472189	-0.140064	-0.333879	0.00304873	0.315364	0.341959	-0.023073	-0.454884	0.0449568	0.0365849	0.265419	-0.250489	0.00894343	1.18774	1.75877	0.200951	-0.270108	-0.0599863	1.21959	1.54838
0.02	0.322886	-0.0589925	-0.106404	-0.153891	0.941774	-0.571052	-0.444003	-0.0857755	-0.0125738	-0.0253101	0.269862	0.217723	-0.0230729	-0.47213	-0.139308	-0.328237	0.00307046	0.313065	0.334006	-0.023073	-0.454569	0.0442614	0.036376	0.26676	-0.25137	0.00941427	1.18729	1.76321	0.202554	-0.270812	-0.0581443	1.21982	1.54488
0.03	0.322676	-0.0581796	-0.105844	-0.153685	0.94186	-0.571087	-0.443964	-0.0862862	-0.0107973	-0.0250922	0.268927	0.214235	-0.0230729	-0.471885	-0.138627	-0.322512	0.00308528	0.310725	0.325771	-0.023073	-0.454143	0.0436669	0.0361296	0.268296	-0.252364	0.0102132	1.18685	1.76743	0.204252	-0.271509	-0.05648	1.2201	1.5416
0.04	0.3223	-0.0574243	-0.105308	-0.153481	0.94194	-0.571123	-0.443712	-0.0867215	-0.00893742	-0.0248742	0.267938	0.210568	-0.0230729	-0.471451	-0.138018	-0.316864	0.00309323	0.308392	0.317505	-0.0230729	-0.453601	0.043164	0.0358559	0.270017	-0.253462	0.0113101	1.18644	1.77134	0.20605	-0.272218	-0.054963	1.22041	1.53864
0.05	0.321766	-0.0567202	-0.104797	-0.153279	0.942013	-0.571158	-0.443258	-0.0870915	-0.00708363	-0.0246558	0.266926	0.206865	-0.0230729	-0.470836	-0.137484	-0.311611	0.00309468	0.306164	0.309707	-0.0230729	-0.452945	0.0427422	0.0355685	0.271901	-0.254654	0.0126627	1.18606	1.77472	0.20795	-0.272964	-0.0535537	1.22073	1.53618
0.06	0.321102	-0.056067	-0.104316	-0.153081	0.942083	-0.571192	-0.442631	-0.0874047	-0.00537465	-0.0244369	0.265932	0.203355	-0.0230729	-0.470071	-0.137035	-0.307238	0.00309078	0.30419	0.303129	-0.0230729	-0.452191	0.0423961	0.0352888	0.273923	-0.255927	0.0142242	1.18575	1.77728	0.209955	-0.273769	-0.0522128	1.22103	1.53448
0.07	0.320358	-0.0554769	-0.103869	-0.152884	0.942153	-0.571222	-0.44189	-0.0876608	-0.00398234	-0.0242169	0.264993	0.200338	-0.0230729	-0.469216	-0.136693	-0.304338	0.00308392	0.302649	0.298683	-0.0230729	-0.451377	0.0421321	0.0350447	0.276053	-0.257273	0.0159501	1.18555	1.77868	0.212064	-0.274644	-0.0509078	1.22125	1.53381
0.08	0.319601	-0.0549798	-0.103464	-0.152689	0.942232	-0.571247	-0.441114	-0.0878441	-0.00308122	-0.0239954	0.264136	0.19813	-0.0230729	-0.468359	-0.136493	-0.303484	0.00307826	0.301712	0.297242	-0.0230729	-0.450564	0.0419733	0.0348736	0.278265	-0.258688	0.0178045	1.18548	1.77862	0.214279	-0.275588	-0.049612	1.22136	1.53442
0.09	0.318901	-0.0546255	-0.103119	-0.1525	0.942323	-0.571266	-0.440379	-0.0879183	-0.00280215	-0.023772	0.263373	0.196973	-0.0230729	-0.46759	-0.136483	-0.30504	0.00307988	0.301486	0.299346	-0.0230729	-0.44983	0.0419585	0.0348264	0.280556	-0.260175	0.0197613	1.18558	1.77697	0.21662	-0.276585	-0.0483021	1.22134	1.5364
0.1	0.318303	-0.0544775	-0.102861	-0.15232	0.942434	-0.571275	-0.439726	-0.0878277	-0.00316928	-0.0235465	0.262686	0.196925	-0.0230729	-0.466972	-0.136712	-0.308965	0.00309655	0.30195	0.304899	-0.0230729	-0.449255	0.0421378	0.0349637	0.282949	-0.261739	0.021793	1.18584	1.77389	0.219119	-0.277613	-0.0469587	1.2212	1.53961
0.11	0.317797	-0.0546023	-0.102726	-0.152156	0.942565	-0.571273	-0.439132	-0.087504	-0.00404881	-0.0233192	0.262025	0.197799	-0.0230729	-0.466508	-0.13722	-0.314691	0.00313675	0.302924	0.312974	-0.0230729	-0.448868	0.0425651	0.035348	0.285478	-0.263378	0.0238577	1.18621	1.76989	0.221812	-0.278643	-0.0455754	1.22097	1.54366
0.12	0.317282	-0.0550615	-0.102763	-0.152014	0.942711	-0.571256	-0.438465	-0.0868726	-0.00516777	-0.0230911	0.261331	0.199198	-0.0230729	-0.466102	-0.138038	-0.321231	0.00320787	0.304096	0.321945	-0.0230729	-0.44862	0.0432929	0.0360424	0.288189	-0.265084	0.0259038	1.18663	1.76572	0.224725	-0.279645	-0.0441703	1.22071	1.54789
0.13	0.316623	-0.0559331	-0.103017	-0.151899	0.942864	-0.57122	-0.437562	-0.0858352	-0.00626789	-0.022864	0.260566	0.20078	-0.0230729	-0.465621	-0.139223	-0.327657	0.00331354	0.305188	0.330274	-0.0230729	-0.448414	0.0443933	0.0371059	0.291118	-0.266848	0.0278948	1.18703	1.76205	0.227875	-0.280602	-0.0427604	1.2205	1.55169
0.14	0.31569	-0.0573094	-0.103511	-0.151813	0.943015	-0.571162	-0.436273	-0.0842727	-0.00717679	-0.0226404	0.25971	0.202362	-0.0230729	-0.464943	-0.140871	-0.333343	0.00345048	0.306022	0.336904	-0.0230729	-0.448143	0.0459563	0.0385825	0.294281	-0.268672	0.0298251	1.18737	1.75932	0.231266	-0.28152	-0.041333	1.22037	1.55463
0.15	0.314379	-0.0592789	-0.104229	-0.151757	0.943158	-0.571079	-0.434493	-0.082066	-0.00781592	-0.0224234	0.258751	0.203912	-0.0230729	-0.463974	-0.143097	-0.338023	0.00360523	0.306539	0.341376	-0.0230729	-0.447707	0.0480717	0.0404876	0.297676	-0.270563	0.0317192	1.18762	1.75766	0.234893	-0.282435	-0.0398346	1.22034	1.55648
0.16	0.312629	-0.061892	-0.105118	-0.151727	0.94329	-0.570971	-0.432173	-0.0791301	-0.00816923	-0.0222161	0.257675	0.205469	-0.0230729	-0.462656	-0.145992	-0.341719	0.00375171	0.306771	0.343753	-0.0230729	-0.447029	0.0507973	0.0427906	0.301279	-0.272534	0.0336205	1.18778	1.75695	0.238755	-0.283403	-0.0381875	1.22039	1.55725
0.17	0.31042	-0.0651177	-0.106075	-0.151724	0.943408	-0.570841	-0.429314	-0.0754583	-0.00823902	-0.022021	0.256445	0.207029	-0.0230729	-0.460948	-0.149581	-0.344619	0.00385085	0.306799	0.344446	-0.0230729	-0.446058	0.0541174	0.0453975	0.305058	-0.274592	0.0355771	1.18787	1.75693	0.242865	-0.284483	-0.0363224	1.22048	1.55714
0.18	0.307768	-0.0688003	-0.106959	-0.151746	0.943511	-0.570699	-0.425952	-0.0711698	-0.00801423	-0.0218389	0.255014	0.208454	-0.0230729	-0.458811	-0.153757	-0.346926	0.00385367	0.306697	0.343998	-0.0230729	-0.444773	0.0579011	0.0481373	0.308983	-0.276729	0.0376311	1.18792	1.75726	0.247261	-0.285727	-0.0342016	1.22058	1.55651
0.19	0.304723	-0.0726303	-0.107594	-0.151796	0.9436	-0.570558	-0.422159	-0.0665458	-0.00746274	-0.0216673	0.253325	0.209455	-0.0230729	-0.4562	-0.158251	-0.348727	0.0037091	0.306493	0.342888	-0.0230729	-0.443182	0.0618757	0.0507556	0.313024	-0.278923	0.039802	1.18796	1.75763	0.251998	-0.287172	-0.031823	1.22062	1.55572
0.2	0.301374	-0.0761526	-0.107789	-0.151875	0.943675	-0.570435	-0.418037	-0.0620347	-0.00659427	-0.0214996	0.251361	0.209705	-0.0230728	-0.453068	-0.16262	-0.349915	0.00337744	0.306134	0.341383	-0.0230729	-0.441327	0.0656295	0.0529356	0.317161	-0.281135	0.0420759	1.18804	1.75785	0.257144	-0.288838	-0.0292117	1.22057	1.55507
0.21	0.297828	-0.0788471	-0.107394	-0.151991	0.943741	-0.570348	-0.41368	-0.0581745	-0.00547725	-0.0213239	0.249166	0.208917	-0.0230728	-0.449361	-0.166329	-0.350223	0.00284918	0.305507	0.339495	-0.0230729	-0.439283	0.0686837	0.0543684	0.321406	-0.283314	0.0444075	1.18816	1.75788	0.262775	-0.290731	-0.0264078	1.22044	1.55474
0.22	0.294159	-0.0802973	-0.10635	-0.152154	0.943797	-0.570308	-0.409128	-0.0554198	-0.0041994	-0.0211235	0.246832	0.206889	-0.0230728	-0.445016	-0.168924	-0.349344	0.00216778	0.30449	0.337023	-0.0230729	-0.437135	0.0706434	0.0548605	0.325807	-0.285416	0.0467331	1.18834	1.75781	0.268956	-0.292836	-0.0234556	1.22023	1.55478
0.23	0.290379	-0.0802915	-0.104707	-0.152381	0.943842	-0.570318	-0.404321	-0.0540269	-0.0028406	-0.0208784	0.244473	0.203503	-0.0230728	-0.439924	-0.170153	-0.347042	0.00145271	0.303019	0.33366	-0.0230729	-0.434957	0.0712945	0.0543814	0.330453	-0.287411	0.0489851	1.18857	1.75781	0.275746	-0.295129	-0.0203836	1.21998	1.55514
0.24	0.286411	-0.0788476	-0.1026	-0.152692	0.943873	-0.57037	-0.399091	-0.0540134	-0.00146068	-0.0205683	0.242208	0.198705	-0.0230728	-0.433909	-0.17001	-0.343225	0.000917529	0.301132	0.329123	-0.0230729	-0.432787	0.0706339	0.053055	0.335472	-0.289288	0.0511054	1.18883	1.75811	0.283199	-0.297585	-0.0171913	1.21973	1.55574
0.25	0.282099	-0.0761852	-0.100204	-0.153108	0.943879	-0.570453	-0.393187	-0.0551761	-9.01296e-05	-0.0201787	0.240129	0.192492	-0.0230728	-0.426717	-0.168732	-0.337995	0.000875951	0.298994	0.323276	-0.0230729	-0.430606	0.0688499	0.0511138	0.340999	-0.291058	0.0530557	1.18912	1.75891	0.291352	-0.300183	-0.0138524	1.21951	1.55652
0.26	0.27725	-0.0726627	-0.0976698	-0.153642	0.943851	-0.57055	-0.386362	-0.0571487	0.00129207	-0.0197077	0.238262	0.18493	-0.0230728	-0.41806	-0.166741	-0.331659	0.00172851	0.296884	0.316227	-0.0230729	-0.42831	0.0662729	0.0488234	0.347103	-0.292751	0.0548153	1.18938	1.76033	0.300197	-0.302891	-0.0103308	1.21931	1.55744
0.27	0.271685	-0.0687049	-0.0950889	-0.154293	0.943776	-0.570646	-0.378449	-0.0594786	0.00274001	-0.0191739	0.236556	0.176167	-0.0230728	-0.407669	-0.16457	-0.324707	0.00392444	0.295161	0.308374	-0.0230729	-0.42574	0.0633096	0.0464277	0.353773	-0.294411	0.0563826	1.18961	1.76234	0.309675	-0.305671	-0.00659296	1.21913	1.55857
0.28	0.265283	-0.0647344	-0.0924877	-0.155054	0.943648	-0.570731	-0.369393	-0.0617068	0.00428633	-0.0186243	0.234915	0.166453	-0.0230728	-0.395344	-0.162767	-0.31776	0.00789821	0.294216	0.30038	-0.0230729	-0.422746	0.0603754	0.0441164	0.36094	-0.29609	0.0577738	1.18977	1.76476	0.319702	-0.308487	-0.00260503	1.21891	1.56005
0.29	0.258007	-0.061116	-0.0898418	-0.155912	0.943463	-0.570798	-0.359271	-0.0634347	0.00588335	-0.0181374	0.233244	0.156164	-0.0230728	-0.380998	-0.161811	-0.311465	0.0139889	0.294394	0.293073	-0.0230729	-0.419241	0.0578352	0.0420163	0.368507	-0.297842	0.0590147	1.18988	1.76724	0.330194	-0.311311	0.00167544	1.21859	1.56203
